<svg xmlns="http://www.w3.org/2000/svg" width="1200" height="630" viewBox="0 0 1200 630">
  <defs>
    <linearGradient id="bg" x1="0" y1="0" x2="1" y2="1">
      <stop offset="0%" stop-color="#020617" />
      <stop offset="100%" stop-color="#0f172a" />
    </linearGradient>
  </defs>
  <rect width="1200" height="630" fill="url(#bg)" />
  <rect x="80" y="120" width="360" height="360" rx="32" fill="#020617" stroke="#22c55e" stroke-width="6" />
  <rect x="100" y="140" width="320" height="320" fill="#020617" />
  <g fill="#e5e7eb">
    <rect x="120" y="160" width="40" height="40" />
    <rect x="160" y="200" width="40" height="40" />
    <rect x="200" y="160" width="40" height="40" />
    <rect x="260" y="220" width="40" height="40" />
    <rect x="320" y="180" width="40" height="40" />
    <rect x="360" y="240" width="40" height="40" />
    <rect x="140" y="260" width="40" height="40" />
    <rect x="220" y="320" width="40" height="40" />
    <rect x="300" y="300" width="40" height="40" />
    <rect x="180" y="360" width="40" height="40" />
  </g>
  <text x="520" y="230" fill="#e5e7eb" font-family="system-ui, -apple-system, BlinkMacSystemFont, 'Segoe UI', sans-serif" font-size="54" font-weight="700">
    GiroCode Generator
  </text>
  <text x="520" y="290" fill="#9ca3af" font-family="system-ui, -apple-system, BlinkMacSystemFont, 'Segoe UI', sans-serif" font-size="26">
    SEPA-QR-Codes in Sekunden erstellen.
  </text>
  <text x="520" y="350" fill="#22c55e" font-family="system-ui, -apple-system, BlinkMacSystemFont, 'Segoe UI', sans-serif" font-size="24">
    Kostenlos - Ohne Registrierung - Datenschutzfreundlich
  </text>
  <rect x="520" y="390" width="280" height="70" rx="999" fill="#22c55e" />
  <text x="660" y="437" text-anchor="middle" fill="#022c16" font-family="system-ui, -apple-system, BlinkMacSystemFont, 'Segoe UI', sans-serif" font-size="26" font-weight="700">
    Jetzt GiroCode erstellen
  </text>
</svg>
